<svg xmlns="http://www.w3.org/2000/svg" viewBox="0 0 21.55 24.39">
	<path class="a" fill="#00d784" fill-rule="evenodd" d="M13.43,9.1a3.49,3.49,0,1,1-3.49,3.49A3.48,3.48,0,0,1,13.43,9.1" transform="translate(-1.23 -0.39)"/>
	<path class="b" fill="#00d784" fill-rule="evenodd" d="M15.17,2.28a10.46,10.46,0,0,1,7.61,5.63L19.66,9.47a7,7,0,1,0,0,6.23l3.12,1.56a10.5,10.5,0,0,1-7.61,5.64v1.88H11.69V22.89a10.44,10.44,0,0,1-8.57-8.56H1.23V10.84H3.12a10.45,10.45,0,0,1,8.57-8.56V.39h3.48Z" transform="translate(-1.23 -0.39)"/>
</svg>
